<?xml version="1.0" encoding="utf-8"?>
<!-- Generator: Adobe Illustrator 19.2.1, SVG Export Plug-In . SVG Version: 6.00 Build 0)  -->
<svg version="1.1" id="layer" xmlns="http://www.w3.org/2000/svg" xmlns:xlink="http://www.w3.org/1999/xlink" x="0px" y="0px"
	 viewBox="0 0 652 652" style="enable-background:new 0 0 652 652;" xml:space="preserve">
<style type="text/css">
	.st0{fill:#6D6E71;}
</style>
<path class="st0" d="M251.8,366.9v18c0,8-1.7,13.5-5,16.4c-3,2.4-8.6,3.6-16.8,3.6c-8.8,0-14.4-1.1-16.8-3.2
	c-2.9-2.4-4.3-8-4.3-16.8l0.1-21h14.9v18.4c0,5.4,2,8,6,8c2.1,0,3.8-0.9,5.2-2.7c1.1-1.7,1.6-3.7,1.6-5.9v-6.6
	c-0.1-3-0.1-5.2-0.1-6.6v-1c0-3.2-0.4-5.3-1.3-6.5c-0.6-0.9-2.6-2.2-6-4.2c-10-5.6-15.9-9.9-17.7-12.9c-1.8-2.9-2.7-9.6-2.7-19.9
	v-3.4c0-9.4,1.3-15.5,3.9-18.3c2.6-2.8,8.5-4.2,17.5-4.2c8.9,0,14.7,1.3,17.5,4c2.7,2.7,4.1,8.6,4.1,17.7v11.9h-15.2v-11.5
	c0-2.1-0.6-4-1.7-5.6c-1.2-1.6-2.8-2.4-4.9-2.4c-4,0-6,3-6,8.9v0.1v8.5c0,3.2,1.8,6,5.5,8.5c3.1,1.6,6.1,3.3,9.2,5
	c5.9,3.4,9.6,6.4,11.1,9.1C251,355,251.8,359.9,251.8,366.9 M292.1,298.8h-36.6v14.7h10.8v90.9h15.2v-90.9h10.6V298.8z M311.7,367.9
	v-47.1c0-1.7,0.7-3.3,2-4.8c1.3-1.5,2.9-2.2,4.6-2.2c1.6,0,3.1,0.8,4.4,2.3c1.3,1.5,1.9,3.1,1.9,4.7v47.1H311.7z M339.7,324.9
	c0-9.8-1.7-16.8-5-21c-3-3.7-7.8-5.6-14.4-5.6H316c-12.9,0-19.4,8.9-19.4,26.6v79.4h15.1V383h12.9v21.4h15.1V324.9z M390.4,361.3
	h-15.1v21.8c0,4.2-2.2,6.3-6.6,6.3c-1.6,0-3.1-0.6-4.4-1.7c-1.3-1.1-1.9-2.7-1.9-4.6v-62.5c0-1.9,0.7-3.6,2-5
	c1.3-1.4,2.9-2.1,4.6-2.1c1.5,0,3,0.7,4.3,2.1c1.3,1.4,2,3,2,5v20.5h15.1v-20.5c0-8.2-1.5-14-4.5-17.4c-3-3.4-8-5-14.9-5h-4
	c-7.1,0-12.1,1.6-14.9,4.7c-3.2,3.4-4.7,9.2-4.7,17.7v62.5c0,7.9,1.5,13.6,4.4,16.8c3,3.3,8.1,4.9,15.2,4.9h4
	c7.4,0,12.4-1.6,15.2-4.7c2.8-3.2,4.2-8.8,4.2-17V361.3z M423.4,298.8l-2.9,16.8c-1.3,8-3,19.4-5,34.2c-2.1-14.7-3.9-26.1-5.3-34.2
	l-3-16.8h-14.1l9.5,42.1c0.1,0.7,1,4.2,2.7,10.5c1,3.8,1.6,7.4,2,10.6c0.2,1.6,0.3,3.3,0.3,4.9c0,1-0.1,2.4-0.1,4.4
	c-0.1,2-0.1,3.6-0.1,5v28.2h16.2v-28.2c0-1.3,0-3-0.1-5c-0.1-2-0.1-3.4-0.1-4.4c0-1.6,0.1-3.3,0.3-4.9c1.9-9.8,3.5-16.8,4.7-21.1
	l9.2-42.1H423.4z M203.3,485.6v-47.7c0-1.7,0.7-3.4,2-4.9c1.4-1.5,2.9-2.3,4.7-2.3c1.6,0,3.1,0.8,4.4,2.3c1.3,1.6,2,3.2,2,4.8v47.7
	H203.3z M231.7,442.1c0-9.9-1.7-17-5.1-21.2c-3-3.8-7.9-5.7-14.6-5.7h-4.4c-13.1,0-19.6,9-19.6,26.9v80.5h15.3v-21.7h13.1v21.7h15.3
	V442.1z M268.2,500c0,1.9-0.2,3.4-0.7,4.4c-1.1,2-3.2,3.1-6.4,3.1h-5.7v-76.5h5.7c4.7,0,7.1,2.5,7.1,7.4V500z M283.8,440.6
	c0-10.5-1.1-17.2-3.3-20.1c-2.5-3.4-8.4-5.1-17.7-5.1l-22.7,0.2v106.9h26c7.6,0,12.6-2.6,15.1-7.9c1.7-3.5,2.6-9.5,2.6-18V440.6z
	 M306.3,485.6v-47.7c0-1.7,0.7-3.4,2-4.9c1.4-1.5,2.9-2.3,4.7-2.3c1.6,0,3.1,0.8,4.4,2.3c1.3,1.6,2,3.2,2,4.8v47.7H306.3z
	 M334.7,442.1c0-9.9-1.7-17-5.1-21.2c-3-3.8-7.9-5.7-14.5-5.7h-4.4c-13.1,0-19.6,9-19.6,26.9v80.5h15.3v-21.7h13.1v21.7h15.3V442.1z
	 M404.7,415.6h-21.8c-3.6,27-6.6,50.9-9,71.9c-2.4-21-5.4-44.9-9-71.9H343v106.9h13.2v-79.3c3,17.8,5.3,31.2,7,40l7.6,39.3h6.5
	l7.4-39.3c3.1-17.7,5.3-31.1,6.7-40v79.3h13.2V415.6z M455.6,484.6c0-7.1-0.7-12-2.2-14.8c-1.5-2.8-5.2-5.8-11.2-9.2
	c-3.1-1.7-6.2-3.4-9.3-5.1c-3.7-2.5-5.5-5.4-5.5-8.6v-8.6v-0.1c0-6,2-9,6.1-9c2.1,0,3.8,0.8,4.9,2.5c1.2,1.7,1.7,3.5,1.7,5.7v11.6
	h15.4v-12.1c0-9.2-1.4-15.2-4.1-17.9c-2.8-2.7-8.7-4.1-17.7-4.1c-9.1,0-15,1.4-17.7,4.3c-2.7,2.9-4,9-4,18.6v3.5
	c0,10.5,0.9,17.2,2.8,20.2c1.8,3,7.8,7.3,17.9,13c3.5,1.9,5.5,3.3,6.1,4.2c0.9,1.2,1.3,3.3,1.3,6.5v1c0,1.5,0,3.7,0.1,6.7v6.7
	c0,2.2-0.5,4.2-1.6,6c-1.4,1.8-3.1,2.8-5.2,2.8c-4.1,0-6.1-2.7-6.1-8.1v-18.6h-15.1l-0.1,21.2c0,8.9,1.5,14.6,4.4,17
	c2.4,2.1,8.1,3.2,17,3.2c8.3,0,14-1.2,17-3.6c3.4-2.9,5.1-8.4,5.1-16.6V484.6 M410.7,97.2c0-8.4-8.9-8.9-8.9-8.9h-79.9h-79.9
	c0,0-8.9,0.5-8.9,8.9v99.9c0,0-0.3,53.5,79.9,60.3c0,0,8.9,0.5,8.9,6.8c0-6.3,8.9-6.8,8.9-6.8c80.2-6.8,79.9-60.3,79.9-60.3V97.2z
	 M435.3,87.3c0,0-15.2,0-15.2,28.8v81.8c0,0,0.9,29.9-33,51.4c-36.9,23.3-53.2,7.6-61.3,24.9l-3.9,8.7l-3.9-8.7
	c-8.1-17.3-24.5-1.6-61.3-24.9c-33.9-21.5-33-51.4-33-51.4v-81.8c0-28.8-15.2-28.8-15.2-28.8L223.2,71h98.6h98.6L435.3,87.3
	 M307.9,196.2c1.6-1.5,5.3-4.9,5.3-6.1c0-1.6,3.4-3.3,7.3-3.3c3.9,0,7.6,0.8,9.4,2.6c1.9,1.9,10.8,6.2,12.3,6.2
	c1.5,0,6.1,2.9,6.1,4.6c0,1.7-9,1.9-9,4c0,2.1-1,4.1-1,4.1h0.1c-4.5-0.6-9.5-0.9-14.9-0.9c-10.9,0-18.9,1.7-25.9,3.9
	c-1.7-0.4-3.3-1-2.2-2l4-4L307.9,196.2z M293.9,200.8c-3,3-6.1,4.6-6.1,4.6s-8,3.5-9.9,4.4c-1.9,0.9-2.3,2.1-2.3,2.1
	c-3.7-1.4-6.4-3.1-6.5-2.9c-1.9,4.5,2.2,8.2,4.4,9.7c-1.2,0.3-2.5,0.6-3.8,0.8c-0.5-0.1-1.1-0.2-2.1-0.2c-7.9-0.6-10.8-5.7-12.7-7.4
	l-0.7,0c-2.9,4.1,0,7.3,1.4,9c0,0,3,4.5,15.9,1.7c7.1-1.6,12.9-3.4,18.5-5.4c0.2-0.1,0.4-0.2,0.6-0.2c-0.9,2.3-2.9,9,2,12.1
	c0.4,0.2,5.2-12.2,14.3-16.1c1.2-0.6,1.9-0.9,2.4-1.2c4.1-0.7,8.6-1.1,13.9-1.1c0.6,0,1.2,0,1.8,0c-1.6,1.9-5.2,6.8-2.1,10.9
	c0.2,0.3,8.5-8.7,17.6-9.1c0.8-0.1,1.3-0.1,1.8-0.1c9.7,1.9,17,5.4,21.5,10.4c2.2,2.4,3.4,4.9,4.1,7c-0.9-0.4-1.9-0.7-2.9-0.7
	c-4,0-7.2,3.2-7.2,7.1c0,3.9,3.2,7.1,7.2,7.1c3.9,0,7.1-3.2,7.1-7.1c0-0.3,0.9-8.1-5.7-15.6c-0.7-0.8-1.5-1.5-2.3-2.2h0
	c0,0-7.5-7.5-8.7-8.7c-1.2-1.2,0.9-10.9,0.9-13.7c0-2.8,0.9-5.4-2.6-5.4s-6.5-5.4-5.2-9c1.3-3.6,2.6-3.6,4.6-3.6
	c2.7,0.1,6.7-4.8,8-7.7c1.4-2.8,2.5-5.8,3.3-11.3c1.1-8.4,1.5-11.2,4.2-11.7c2.7-0.5,3.2,1,4.1,1.8c0,0,2,3.9-3.4,6.2
	c-1.4,0.6-0.2,9,3.6,12.9c3.9,3.8,8.1-9,8.4-11.7c0.3-2.7-0.1-3.3-1.2-3.4c-2.9-0.3-3.6-4.1-3.7-5.1c-0.1-0.9-2.9-5.5-7.8-5.1
	c-5.6,0.5-7.2,7.4-7.8,10.8c-0.6,3.4-2.4,12.9-5.8,14.4c-1.3-1-3.6-2.6-4.7-3.3c-4.7-3.4-17.4-5.9-18.1-6.6c-0.9-0.8-2.7-3,3.3-5.2
	c0.6-0.2,1.1-0.4,1.7-0.6c-0.5-0.7-0.8-1.4-0.8-2.2c0-3.3,4.1-3.8,10.6-3.8c1.5,0,4.1-0.5,5.5-1.8c0,0,0,0,0,0
	c-2-1.1-3.3-2.5-3.3-4.2c0-3.3,5.2-4.2,11.7-4.2c1.7,0,3.3,0.2,4.8-1.3c-1.4-1-2.3-2.2-2.3-3.6c0-3.3,5.2-4.3,11.8-4.3
	c1.1,0,3.3,0.1,3.3-1.4c-1.6-1-2.3-2.6-2.3-4c0-3.4,5.3-6,11.8-6c0.3,0,0.6,0,0.9,0.1c1.4-1.7,2-2.8,1.4-3c-3.5-1.4-24.2,4-24.2,4
	s-1.5,0.5-3.9,1.4c-0.1-0.7-0.2-1.4-0.4-2c-2.6-7.5,10.9-6.5,7.8-10.3c-3.1-3.9,3.6-8,4.9-8.3c1.3-0.2,3.5-0.3,3.9-0.6
	c1.1-0.7,0.7-1.9,0.5-1.9c-49,0-48.6,31.6-48.6,32.2c0,0.5-3.1,2.5-3.9,3.5c-1.5,0.5-3,1.1-4.5,1.6c5.2-11.3,4.6-15.8,3.1-20.7
	c-2-6.1-5.6-5.3-7.1-6.8c-1.5-1.4-1.5-4-1.5-4l-2.8,2.8c0,0-1.8-6.7-4.3-2c-2.1,4-9.5,6.4-11.6,7c-2.1,0.6-4.4,1-3.8,2.1
	c0.6,1.1,2.8,5.8,2.8,5.8c-5.9,3-7.4-1.1-7.4-1.1s-2.8,1.9-1.4,3.3c1.3,1.3,7.1,1.7,9.6,0.9l1.5,9.6c0,0,3.5-3.4,4.2-3.4
	c0.7,0,2.2,2.4,1.1,3.4c-1.1,1.1-8.4,4.6-13.2,3.9c-4.7-0.7-8.4-4.9-8.4-4.9s-5.7-4.2-8.2-4.9c-2.5-0.8,0.6-7,1.8-9.7
	c1-2.1-2.3-4.8-3.8-5.9c0,0-2.4-0.2-2,1.4c0.5,2.5,0.5,7.2-2.6,14.9c-2.5,6.1-4.8,3-5.1,6.6c-0.2,3.5,1.2,5.1,1.2,5.1
	c0.6,0.1,1.1,0.2,1.7,0.3c1.7,0.4,5.8-6.1,7.7-6.5c1.9-0.4,4.5,4.7,4.5,4.7c0,2.5,7.6,9.7,9.6,11.6c-2.2,2.9-1.9,7.8-1.4,11.1
	c0,0-10.8,4.9-16.3,5.3c-1,0.1-2.5-1.2-3-1.4c-3.1-1.3-3.9-4-5.9-4c-0.8,0-3,0.5-5.1,1.1c-1.5,0.4-2.4,0.9-0.6,1.5
	c2.5,0.8,5.9,3.1,8.6,9.2c1.9,4.4-1,5.1-1.2,7.3c-0.2,2.2,1.9,4.4,1.9,4.4c1.6-1.8,5-6.1,5-8.7c0-3.2,14.2-4.7,17-4.7
	c2.8,0,20.1,5.2,20.1,7c0,1.8-10.9,4.1-9.1,10.9C299,189.7,297,197.8,293.9,200.8 M188,554.5h73.8v-2H188V554.5z M380.4,554.5h75.2
	v-2h-75.2V554.5z M323.1,538.9v3.3l4.4-3V571h2.9v-35h-2.9L323.1,538.9z M334.9,557.9c0-0.8,0.3-1.5,0.9-2.1
	c0.6-0.6,1.3-0.8,2.1-0.8c0.8,0,1.5,0.3,2.1,0.8c0.6,0.6,0.8,1.3,0.8,2.1v7.3c0,0.8-0.3,1.5-0.8,2.1c-0.6,0.6-1.3,0.9-2.1,0.9
	c-0.8,0-1.5-0.3-2.1-0.9c-0.6-0.6-0.9-1.3-0.9-2.1V557.9z M335.7,539.8c0.6-0.6,1.3-0.8,2.1-0.8c0.8,0,1.5,0.3,2.1,0.8
	c0.6,0.6,0.8,1.3,0.8,2.1v7.3c0,0.7-0.3,1.4-0.8,2c-0.6,0.6-1.3,0.9-2.1,0.9c-0.8,0-1.5-0.3-2.1-0.9c-0.6-0.6-0.9-1.3-0.9-2v-7.3
	C334.9,541.1,335.2,540.4,335.7,539.8 M343.6,540.4c0-1.2-0.4-2.3-1.2-3.1c-0.9-0.9-1.9-1.3-3.1-1.3h-3c-1.2,0-2.2,0.4-3.1,1.3
	c-0.9,0.9-1.3,1.9-1.3,3.1v10.9c0,0.6,0.2,1.1,0.6,1.5c0,0.1,0.1,0.1,0.1,0.1c0,0,0.1,0.1,0.2,0.1c0.4,0.3,0.8,0.4,1.2,0.4
	c-0.4,0-0.9,0.1-1.3,0.4c0,0.1-0.1,0.1-0.1,0.1c0,0-0.1,0.1-0.1,0.1c-0.4,0.4-0.6,0.9-0.6,1.5v11c0,1.2,0.4,2.2,1.3,3.1
	c0.9,0.9,1.9,1.3,3.1,1.3h3c1.2,0,2.2-0.4,3.1-1.3c0.8-0.8,1.2-1.9,1.2-3.1v-11c0-0.6-0.2-1.1-0.6-1.5l-0.3-0.3
	c-0.4-0.3-0.8-0.4-1.3-0.4c0.4,0,0.8-0.1,1.3-0.4c0-0.1,0.1-0.1,0.1-0.1c0,0,0.1-0.1,0.1-0.1c0.4-0.4,0.6-0.9,0.6-1.5V540.4z
	 M344.8,538.9h8l-8,32.1h2.9l8.7-35h-11.6V538.9z M369,538.9V536h-11.7v16.1h5.9c0.8,0,1.5,0.3,2.1,0.8c0.6,0.6,0.9,1.3,0.9,2.1
	v10.2c0,0.8-0.3,1.5-0.9,2.1c-0.6,0.6-1.3,0.9-2.1,0.9c-0.8,0-1.5-0.3-2.1-0.9c-0.6-0.6-0.8-1.3-0.8-2.1v-2.9h-2.9v4.4
	c0,1.2,0.4,2.2,1.3,3.1c0.9,0.9,1.9,1.3,3,1.3h3c1.2,0,2.2-0.4,3.1-1.3c0.8-0.8,1.2-1.9,1.2-3.1v-13.3c0-1.1-0.4-2.1-1.2-3
	c-0.8-0.8-1.9-1.3-3.1-1.3h-4.4v-10.3H369z M286.3,536h-11.7v35h11.7v-2.9h-8.7V555h8.7v-2.9h-8.7v-13.2h8.7V536z M298.9,540.4
	c0-1.2-0.4-2.3-1.3-3.1c-0.9-0.9-1.9-1.3-3.1-1.3h-2.9c-1.2,0-2.2,0.4-3.1,1.3c-0.9,0.9-1.3,1.9-1.3,3.1v4.3c0,4.4,1.4,7.6,4.3,9.6
	c2.9,2,4.4,4.2,4.4,6.4l0.1,1.4v2.9c0,0.8-0.3,1.5-0.9,2.1c-0.6,0.6-1.2,0.9-2,0.9c-0.8,0-1.5-0.3-2-0.9c-0.6-0.6-0.9-1.3-0.9-2.1
	v-2.9h-2.9v4.4c0,1.2,0.4,2.2,1.3,3.1c0.9,0.9,1.9,1.3,3.1,1.3h2.9c1.2,0,2.2-0.4,3.1-1.3c0.8-0.8,1.3-1.9,1.3-3.1v-4.4
	c0.1-4.5-1.4-7.7-4.2-9.6c-2.9-2-4.3-4.2-4.4-6.5v-1.5l-0.1-2.9c0-0.8,0.3-1.5,0.9-2.1c0.6-0.6,1.3-0.8,2-0.8c0.8,0,1.5,0.3,2,0.8
	c0.6,0.6,0.9,1.3,0.9,2.1v2.9h2.9V540.4z M311.5,536h-11.7v2.9h4.4V571h2.9v-32.1h4.4V536z M309,571h2.9v-2.9H309V571z"/>
</svg>
